<?xml version="1.0" standalone="no"?>
<!DOCTYPE svg PUBLIC "-//W3C//DTD SVG 20010904//EN"
 "http://www.w3.org/TR/2001/REC-SVG-20010904/DTD/svg10.dtd">
<svg version="1.0" xmlns="http://www.w3.org/2000/svg"
 width="300.000000pt" height="300.000000pt" viewBox="0 0 300.000000 300.000000"
 preserveAspectRatio="xMidYMid meet">
<metadata>
Created by potrace 1.10, written by Peter Selinger 2001-2011
</metadata>
<g transform="translate(0.000000,300.000000) scale(0.100000,-0.100000)"
fill="#000000" stroke="none">
<path d="M689 1985 c-57 -31 -78 -97 -50 -158 25 -56 783 -813 824 -822 76
-19 76 -19 489 393 213 212 395 401 404 420 22 47 11 97 -31 139 -27 27 -41
33 -75 33 -23 0 -51 -5 -63 -11 -12 -6 -172 -160 -355 -342 l-332 -332 -338
337 c-185 185 -347 341 -359 347 -30 15 -83 13 -114 -4z"/>
</g>
</svg>
