<?xml version="1.0" standalone="no"?>
<!DOCTYPE svg PUBLIC "-//W3C//DTD SVG 20010904//EN"
 "http://www.w3.org/TR/2001/REC-SVG-20010904/DTD/svg10.dtd">
<svg version="1.0" xmlns="http://www.w3.org/2000/svg"
 width="300.000000pt" height="300.000000pt" viewBox="0 0 300.000000 300.000000"
 preserveAspectRatio="xMidYMid meet">
<metadata>
Created by potrace 1.10, written by Peter Selinger 2001-2011
</metadata>
<g transform="translate(0.000000,300.000000) scale(0.100000,-0.100000)"
fill="#000000" stroke="none">
<path d="M115 2873 c-48 -10 -76 -28 -95 -58 -24 -39 -25 -76 -4 -121 27 -57
59 -68 226 -72 134 -4 148 -6 166 -26 21 -22 437 -1260 448 -1331 4 -28 -3
-76 -21 -154 -46 -190 -27 -296 67 -390 53 -52 109 -79 190 -92 38 -6 358 -9
813 -7 835 3 795 0 829 72 20 43 20 69 0 112 -34 72 9 69 -849 71 -424 2 -779
5 -791 8 -38 8 -45 45 -24 125 31 122 -50 110 734 110 375 0 698 4 719 9 74
18 74 16 262 580 96 289 175 534 175 544 0 34 -30 83 -63 102 -31 19 -62 20
-1080 25 -1014 5 -1049 6 -1062 24 -8 10 -44 108 -80 216 -71 213 -84 235
-152 251 -38 8 -370 11 -408 2z"/>
<path d="M916 485 c-220 -84 -217 -397 4 -470 236 -78 426 193 274 392 -58 76
-187 113 -278 78z"/>
<path d="M2416 484 c-172 -63 -220 -280 -91 -409 165 -166 446 -31 422 202
-17 159 -181 262 -331 207z"/>
</g>
</svg>
